<svg width="100" height="100" viewBox="0 0 100 100" fill="none" xmlns="http://www.w3.org/2000/svg">
<rect width="100" height="100" rx="20" fill="#C2C2C2"/>
<rect x="2" y="2" width="87" height="95" rx="18" fill="white"/>
<path d="M35.848 20.776C36.104 22.44 36.488 24.424 37.128 26.472C40.072 36.84 46.984 62.376 48.968 68.904C49.352 70.312 50.376 73.32 50.952 74.92L41.48 77.16C41.096 75.432 40.648 72.872 40.008 70.696C38.28 64.488 30.856 36.136 28.616 28.52C27.784 25.704 27.208 24.168 26.504 22.952L35.848 20.776ZM73.096 32.424C70.152 38.952 62.344 50.152 57.032 55.976L48.776 52.072C53.576 48.104 58.696 41.384 60.744 37.864C56.648 38.504 24.52 45.096 18.248 46.568L16.072 37.928C18.504 37.736 20.744 37.48 23.24 37.096C27.336 36.392 58.056 30.632 63.432 29.416C64.776 29.16 66.248 28.648 67.272 28.2L73.096 32.424Z" fill="black"/>
</svg>
