<svg width="100" height="100" viewBox="0 0 100 100" fill="none" xmlns="http://www.w3.org/2000/svg">
<rect width="100" height="100" rx="20" fill="#C2C2C2"/>
<rect x="2" y="2" width="87" height="95" rx="18" fill="white"/>
<path d="M73.928 32.68C73.032 33.704 72.264 34.6 71.752 35.368C66.76 43.624 57.288 55.144 47.368 62.44L40.968 56.552C49.416 50.664 56.584 41.96 59.912 36.072C54.28 36.072 30.984 36.072 26.12 36.072C23.496 36.072 20.04 36.392 18.696 36.584V27.56C20.424 27.88 23.88 28.2 26.12 28.2C30.152 28.2 54.728 28.2 61.576 28.2C64.072 28.2 66.184 27.944 67.592 27.496L73.928 32.68ZM40.2 63.4C36.424 59.624 29.896 53.8 26.12 51.112L32.84 45.608C36.296 48.232 42.696 53.416 47.56 58.088C51.784 62.184 56.84 67.496 59.912 71.208L52.36 77.224C49.736 73.64 44.36 67.624 40.2 63.4Z" fill="black"/>
</svg>
