<svg width="100" height="100" viewBox="0 0 100 100" fill="none" xmlns="http://www.w3.org/2000/svg">
<rect width="100" height="100" rx="20" fill="#C2C2C2"/>
<rect x="2" y="2" width="87" height="95" rx="18" fill="white"/>
<path d="M48.048 21.672C47.856 23.208 47.664 25.896 47.6 27.432C46.896 52.84 40.88 65.832 26.736 75.88L19.248 69.864C21.936 68.392 25.136 66.28 27.696 63.656C36.08 55.336 39.024 44.456 39.088 27.56C39.088 26.152 38.832 23.208 38.576 21.672H48.048ZM69.744 35.432C69.552 36.456 69.36 38.056 69.36 38.76C69.104 45.736 68.272 63.592 65.52 70.12C64.176 73.32 61.68 75.048 57.328 75.048C53.616 75.048 49.84 74.728 46.704 74.472L45.68 65.96C48.88 66.472 52.144 66.856 54.704 66.856C56.752 66.856 57.648 66.152 58.288 64.552C60.144 60.52 61.04 47.72 61.04 40.808H29.808C27.632 40.808 24.048 40.872 21.36 41.128V32.68C24.048 33 27.312 33.128 29.744 33.128H59.376C61.04 33.128 62.704 33 64.24 32.68L69.744 35.432Z" fill="black"/>
</svg>
