<svg width="100" height="100" viewBox="0 0 100 100" fill="none" xmlns="http://www.w3.org/2000/svg">
<rect width="100" height="100" rx="20" fill="#C2C2C2"/>
<rect x="2" y="2" width="87" height="95" rx="18" fill="white"/>
<path d="M33.712 22.376C37.936 24.68 44.976 29.16 48.304 31.528L43.568 38.568C39.984 36.072 33.328 31.784 29.104 29.416L33.712 22.376ZM21.872 67.816C29.04 66.6 36.656 64.424 43.632 60.584C54.512 54.504 63.472 45.736 68.528 36.584L73.456 45.288C67.568 54.184 58.48 62.248 48.048 68.328C41.52 71.976 32.304 75.176 26.672 76.2L21.872 67.816ZM23.856 36.968C28.144 39.272 35.184 43.624 38.512 45.992L33.776 53.16C30.192 50.6 23.536 46.312 19.248 44.008L23.856 36.968Z" fill="black"/>
</svg>
